<svg xmlns="http://www.w3.org/2000/svg" version="1.1" xmlns:xlink="http://www.w3.org/1999/xlink" xmlns:svgjs="http://svgjs.dev/svgjs" width="2000" height="671" viewBox="0 0 2000 671"><g transform="matrix(1,0,0,1,-1.2121212121212466,-1.9539785442896118)"><svg viewBox="0 0 396 133" data-background-color="#ffffff" preserveAspectRatio="xMidYMid meet" height="671" width="2000" xmlns="http://www.w3.org/2000/svg" xmlns:xlink="http://www.w3.org/1999/xlink"><g id="tight-bounds" transform="matrix(1,0,0,1,0.2400000000000091,0.38730126138676724)"><svg viewBox="0 0 395.52 132.22539747722647" height="132.22539747722647" width="395.52"><g><svg viewBox="0 0 697.6936637010167 233.24439219308584" height="132.22539747722647" width="395.52"><g><rect width="12.74823326263472" height="232.0897169842091" x="428.89233838386053" y="0.5773376044383696" fill="#ffffff" opacity="1" stroke-width="0" stroke="transparent" fill-opacity="1" class="rect-yte-0" data-fill-palette-color="primary" rx="1%" id="yte-0" data-palette-color="#111111"></rect></g><g transform="matrix(1,0,0,1,0,1.1546752088766823)"><svg viewBox="0 0 395.52 230.93504177533248" height="230.93504177533248" width="395.52"><g id="textblocktransform"><svg viewBox="0 0 395.52 230.93504177533248" height="230.93504177533248" width="395.52" id="textblock"><g><svg viewBox="0 0 395.52 141.36268991282688" height="141.36268991282688" width="395.52"><g transform="matrix(1,0,0,1,0,0)"><svg width="395.52" viewBox="0.9 -32.03 117.61999999999999 42.04" height="141.36268991282688" data-palette-color="#111111"><path d="M7.06-32.03Q7.89-32.03 8.24-31.65 8.59-31.27 8.59-30.37L8.59-30.37 8.59-19.07Q11.74-23.1 16.33-23.1L16.33-23.1Q19.36-23.1 21.75-21.67 24.15-20.24 25.51-17.57 26.88-14.89 26.88-11.28L26.88-11.28Q26.88-7.67 25.51-4.99 24.15-2.32 21.75-0.89 19.36 0.54 16.33 0.54L16.33 0.54Q13.94 0.54 11.91-0.54 9.89-1.61 8.35-3.61L8.35-3.61 8.35-1.66Q8.35-0.76 8-0.38 7.64 0 6.81 0L6.81 0 2.93 0Q2.1 0 1.75-0.38 1.39-0.76 1.39-1.66L1.39-1.66Q1.39-2.56 1.75-2.94 2.1-3.32 2.93-3.32L2.93-3.32 4.93-3.32 4.93-28.71 2.44-28.71Q1.61-28.71 1.26-29.09 0.9-29.47 0.9-30.37L0.9-30.37Q0.9-31.27 1.26-31.65 1.61-32.03 2.44-32.03L2.44-32.03 7.06-32.03ZM16.09-19.48Q13.92-19.48 12.22-18.51 10.52-17.53 9.56-15.67 8.59-13.82 8.59-11.28L8.59-11.28Q8.59-8.74 9.56-6.88 10.52-5.03 12.22-4.05 13.92-3.08 16.09-3.08L16.09-3.08Q18.26-3.08 19.82-4.11 21.39-5.15 22.2-7.01 23.02-8.86 23.02-11.28L23.02-11.28Q23.02-13.7 22.2-15.55 21.39-17.41 19.82-18.44 18.26-19.48 16.09-19.48L16.09-19.48ZM45.6-32.03Q46.43-32.03 46.79-31.65 47.14-31.27 47.14-30.37L47.14-30.37 47.14-3.32 54.98-3.32Q55.81-3.32 56.16-2.94 56.52-2.56 56.52-1.66L56.52-1.66Q56.52-0.76 56.16-0.38 55.81 0 54.98 0L54.98 0 35.84 0Q35.01 0 34.65-0.38 34.3-0.76 34.3-1.66L34.3-1.66Q34.3-2.56 34.65-2.94 35.01-3.32 35.84-3.32L35.84-3.32 43.48-3.32 43.48-28.71 36.81-28.71Q35.98-28.71 35.63-29.09 35.28-29.47 35.28-30.37L35.28-30.37Q35.28-31.27 35.63-31.65 35.98-32.03 36.81-32.03L36.81-32.03 45.6-32.03ZM74.95-23.1Q78.29-23.1 80.98-21.58 83.66-20.07 85.19-17.37 86.71-14.67 86.71-11.28L86.71-11.28Q86.71-7.89 85.19-5.19 83.66-2.49 80.98-0.98 78.29 0.54 74.95 0.54L74.95 0.54Q71.6 0.54 68.92-0.98 66.23-2.49 64.7-5.19 63.18-7.89 63.18-11.28L63.18-11.28Q63.18-14.67 64.7-17.37 66.23-20.07 68.92-21.58 71.6-23.1 74.95-23.1L74.95-23.1ZM74.95-19.48Q72.58-19.48 70.78-18.44 68.99-17.41 68.01-15.54 67.04-13.67 67.04-11.28L67.04-11.28Q67.04-8.89 68.01-7.02 68.99-5.15 70.78-4.11 72.58-3.08 74.95-3.08L74.95-3.08Q77.31-3.08 79.11-4.11 80.9-5.15 81.88-7.02 82.86-8.89 82.86-11.28L82.86-11.28Q82.86-13.67 81.88-15.54 80.9-17.41 79.11-18.44 77.31-19.48 74.95-19.48L74.95-19.48ZM103.58-23.1Q105.97-23.1 108-22.02 110.03-20.95 111.56-18.95L111.56-18.95 111.56-20.9Q111.56-21.8 111.92-22.18 112.27-22.56 113.1-22.56L113.1-22.56 116.98-22.56Q117.81-22.56 118.17-22.18 118.52-21.8 118.52-20.9L118.52-20.9Q118.52-20 118.17-19.62 117.81-19.24 116.98-19.24L116.98-19.24 114.98-19.24 114.98 0.73Q114.98 3.64 113.75 5.73 112.52 7.81 110.17 8.91 107.83 10.01 104.53 10.01L104.53 10.01Q102.19 10.01 99.8 9.61 97.4 9.2 95.33 8.45L95.33 8.45Q94.38 8.11 94.38 7.15L94.38 7.15Q94.38 6.76 94.57 6.18L94.57 6.18Q95.01 4.83 95.96 4.83L95.96 4.83Q96.23 4.83 96.5 4.93L96.5 4.93Q98.41 5.62 100.51 6.01 102.6 6.4 104.53 6.4L104.53 6.4Q107.9 6.4 109.61 4.8 111.32 3.2 111.32 0.42L111.32 0.42 111.32-4.49Q108.29-0.68 103.58-0.68L103.58-0.68Q100.55-0.68 98.16-2.04 95.77-3.39 94.4-5.93 93.03-8.47 93.03-11.89L93.03-11.89Q93.03-15.31 94.4-17.85 95.77-20.39 98.16-21.74 100.55-23.1 103.58-23.1L103.58-23.1ZM103.83-19.48Q101.65-19.48 100.09-18.52 98.53-17.55 97.71-15.83 96.89-14.11 96.89-11.89L96.89-11.89Q96.89-9.67 97.71-7.95 98.53-6.23 100.09-5.26 101.65-4.3 103.83-4.3L103.83-4.3Q106-4.3 107.7-5.2 109.39-6.1 110.36-7.82 111.32-9.55 111.32-11.89L111.32-11.89Q111.32-14.23 110.36-15.95 109.39-17.68 107.7-18.58 106-19.48 103.83-19.48L103.83-19.48Z" opacity="1" transform="matrix(1,0,0,1,0,0)" fill="#ffffff" class="wordmark-text-0" data-fill-palette-color="primary" id="text-0"></path></svg></g></svg></g><g transform="matrix(1,0,0,1,0,174.7350282966874)"><svg viewBox="0 0 232.209792 56.20001347864507" height="56.20001347864507" width="232.209792"><g transform="matrix(1,0,0,1,0,0)"><svg width="232.209792" viewBox="3.9 -37.3 203.68 49.3" height="56.20001347864507" data-palette-color="#111111"><path d="M3.9 0L3.9-36.75 13.25-36.75Q21.15-36.75 23.75-34.1 26.35-31.45 26.35-27.7L26.35-27.7Q26.35-25.2 25.25-22.98 24.15-20.75 21.75-19.65L21.75-19.65Q25.3-18.75 26.98-16.5 28.65-14.25 28.65-11.2L28.65-11.2Q28.65-8 27.65-5.6 26.65-3.2 23.5-1.6 20.35 0 14.4 0L14.4 0 3.9 0ZM9.4-21.15L14.15-21.15Q17.7-21.15 19.2-22.88 20.7-24.6 20.7-27.25L20.7-27.25Q20.7-32 13.9-32L13.9-32 9.4-32 9.4-21.15ZM9.4-4.7L15.15-4.7Q19.7-4.7 21.28-6.53 22.85-8.35 22.85-11.15L22.85-11.15Q22.85-13.8 21.05-15.25 19.25-16.7 15.6-16.7L15.6-16.7 9.4-16.7 9.4-4.7ZM35.3 0L35.3-36.75 40.65-36.75 40.65 0 35.3 0ZM58.95 0.5Q55.4 0.5 52.65-1.1 49.9-2.7 48.4-5.45 46.9-8.2 46.9-11.55L46.9-11.55Q46.9-14.85 48.37-17.6 49.84-20.35 52.59-21.95 55.34-23.55 58.95-23.55L58.95-23.55Q62.55-23.55 65.27-21.95 68-20.35 69.47-17.6 70.94-14.85 70.94-11.55L70.94-11.55Q70.94-8.2 69.44-5.45 67.94-2.7 65.22-1.1 62.5 0.5 58.95 0.5L58.95 0.5ZM59.09-3.9Q62-3.9 63.67-6.05 65.34-8.2 65.34-11.45L65.34-11.45Q65.34-14.7 63.55-16.93 61.75-19.15 58.8-19.15L58.8-19.15Q55.95-19.15 54.22-16.95 52.5-14.75 52.5-11.45L52.5-11.45Q52.5-8.25 54.34-6.08 56.2-3.9 59.09-3.9L59.09-3.9ZM87.84 12Q85.29 12 82.82 11.3 80.34 10.6 79.29 10L79.29 10 80.49 5Q83.79 7.15 87.69 7.15L87.69 7.15Q90.69 7.15 92.74 5.7 94.79 4.25 94.84 0.05L94.84 0.05 94.84-4.05Q93.79-2.1 91.44-0.8 89.09 0.5 86.24 0.5L86.24 0.5Q83.24 0.5 80.74-0.98 78.24-2.45 76.79-5.2 75.34-7.95 75.34-11.6L75.34-11.6Q75.34-15.1 76.72-17.82 78.09-20.55 80.64-22.05 83.19-23.55 86.59-23.55L86.59-23.55Q88.59-23.55 90.34-22.85 92.09-22.15 93.32-21.13 94.54-20.1 94.94-19.1L94.94-19.1 95.04-22.95 100.14-22.95 100.14-0.15Q100.14 5.7 97.14 8.85 94.14 12 87.84 12L87.84 12ZM87.74-4.05Q90.59-4.05 92.54-6.03 94.49-8 94.49-11.2L94.49-11.2 94.49-11.55Q94.49-13.7 93.59-15.4 92.69-17.1 91.14-18.05 89.59-19 87.74-19L87.74-19Q84.54-19 82.79-16.93 81.04-14.85 81.04-11.55L81.04-11.55Q81.04-8.2 82.77-6.13 84.49-4.05 87.74-4.05L87.74-4.05ZM128.09 0.5Q125.09 0.5 122.14-0.55 119.19-1.6 117.89-2.9L117.89-2.9 120.54-7.65Q121.59-6.7 123.81-5.68 126.04-4.65 128.09-4.65L128.09-4.65Q130.74-4.65 132.41-5.9 134.09-7.15 134.09-9.35L134.09-9.35Q134.09-11.05 133.19-12.3 132.29-13.55 130.99-14.38 129.69-15.2 127.29-16.4L127.29-16.4Q124.44-17.8 123.39-18.5L123.39-18.5Q118.54-21.75 118.54-27.5L118.54-27.5Q118.54-32.25 121.69-34.77 124.84-37.3 129.64-37.3L129.64-37.3Q134.79-37.3 138.39-34.35L138.39-34.35 135.74-29.8Q134.79-30.8 133.06-31.53 131.34-32.25 129.39-32.25L129.39-32.25Q126.89-32.25 125.46-31.13 124.04-30 124.04-27.8L124.04-27.8Q124.04-26.25 124.94-25.03 125.84-23.8 127.21-22.9 128.59-22 130.94-20.7L130.94-20.7Q133.19-19.45 134.39-18.73 135.59-18 136.64-17L136.64-17Q138.09-15.7 138.99-13.9 139.89-12.1 139.89-9.95L139.89-9.95Q139.89-6.6 138.36-4.25 136.84-1.9 134.16-0.7 131.49 0.5 128.09 0.5L128.09 0.5ZM147.54 0L147.54-18.55 143.49-18.55 143.49-22.95 147.54-22.95 147.54-32.3 152.99-33.5 152.99-22.95 158.29-22.95 158.29-18.55 152.99-18.55 152.99 0 147.54 0ZM172.83 0.5Q169.73 0.5 167.11-0.98 164.48-2.45 162.91-5.18 161.33-7.9 161.33-11.55L161.33-11.55Q161.33-15.15 162.71-17.85 164.08-20.55 166.63-22.05 169.18-23.55 172.63-23.55L172.63-23.55Q174.63-23.55 176.38-22.85 178.13-22.15 179.33-21.13 180.53-20.1 180.93-19.1L180.93-19.1 181.03-22.95 186.18-22.95 186.18 0 181.08 0 180.98-4.05Q180.13-2.25 177.88-0.88 175.63 0.5 172.83 0.5L172.83 0.5ZM173.73-4Q176.58-4 178.53-5.98 180.48-7.95 180.48-11.15L180.48-11.15 180.48-11.5Q180.48-13.65 179.58-15.35 178.68-17.05 177.13-18 175.58-18.95 173.73-18.95L173.73-18.95Q170.53-18.95 168.78-16.88 167.03-14.8 167.03-11.5L167.03-11.5Q167.03-8.15 168.76-6.08 170.48-4 173.73-4L173.73-4ZM193.28 0L193.28-22.95 198.68-22.95 198.68-18.45Q199.48-20.75 201.28-22.15 203.08-23.55 205.38-23.55L205.38-23.55Q206.98-23.55 207.58-23.25L207.58-23.25 206.83-17.8Q206.38-18.1 204.88-18.1L204.88-18.1Q202.53-18.1 200.61-16.6 198.68-15.1 198.68-11.8L198.68-11.8 198.68 0 193.28 0Z" opacity="1" transform="matrix(1,0,0,1,0,0)" fill="#ffffff" class="slogan-text-1" data-fill-palette-color="secondary" id="text-1"></path></svg></g></svg></g></svg></g></svg></g><g transform="matrix(1,0,0,1,475.0129100303558,0)"><svg viewBox="0 0 222.68075367066098 233.24439219308584" height="233.24439219308584" width="222.68075367066098"><g><svg version="1.0" xmlns="http://www.w3.org/2000/svg" xmlns:xlink="http://www.w3.org/1999/xlink" x="0" y="0" viewBox="0 0 95.471 100" enable-background="new 0 0 95.471 100" xml:space="preserve" id="icon-0" width="222.68075367066098" height="233.24439219308584" class="icon-icon-0" data-fill-palette-color="accent"><path d="M47.735 0C47.652 2.825 45.997 13.412 27.936 30.934 10.554 47.797 2.439 49.824 0 50 2.439 50.178 10.554 52.204 27.936 69.066 45.997 86.589 47.652 97.177 47.735 100 47.818 97.177 49.474 86.589 67.533 69.066 84.917 52.204 93.031 50.178 95.471 50 93.032 49.824 84.917 47.797 67.533 30.934 49.475 13.412 47.819 2.825 47.735 0" fill="#ffffff" data-fill-palette-color="accent"></path></svg></g></svg></g></svg></g><defs></defs></svg><rect width="395.52" height="132.22539747722647" fill="none" stroke="none" visibility="hidden"></rect></g></svg></g></svg>